# xmcd
#
# Track frame offsets:
#	150
#	9479
#	22022
#	34211
#	45863
#	56228
#	65864
#	75561
#	86867
#	98267
#	110057
#	121373
#	134279
#	145803
#	156963
#	169661
#	180121
#	189524
#	200588
#	212168
#
# Disc length: 2974 seconds
#
# Revision: 0
# Processed by: cddbd v1.5.2PL0 Copyright (c) Steve Scherf et al.
# Submitted via: audiograbber 1.83.01
#
DISCID=130b9c14
DTITLE=Various Artist - Country and Western - 200 No.1 - Hits (1944-1962) - CD4
DYEAR=2016
DGENRE=Country
TTITLE0=Elvis Presley - Don't Be Cruel (1956)
TTITLE1=Johnny Cash - I Walk The Line (1956)
TTITLE2=Elvis Presley - I Want You, I Need You, I Love You (1956)
TTITLE3=Ray Price - Crazy Arms (1956)
TTITLE4=Carl Perkins - Blue Suede Shoes (1956)
TTITLE5=Louvin Brothers - I Don't Bellieve You've Met My Baby (1956)
TTITLE6=Elvis Presley - Heartbreak Hotel (1956)
TTITLE7=Elvis Presley - I Forgot To Remember To Forgot (1956)
TTITLE8=Red Sovine and Webb Pierce - Why Baby, Why (1956)
TTITLE9=Tennessee Ernie Ford - Sixteen Tons (1955)
TTITLE10=Eddy Arnold - That Do Make It Nice (1955)
TTITLE11=Webb Pierce - Love, Love, Love (1955)
TTITLE12=Eddy Arnold - The Cattle Call (1955)
TTITLE13=Webb Pierce - I Don't Care (1955)
TTITLE14=Porter Wagoner - A Satisfied Mind (1955)
TTITLE15=Faron Young - Live Fast, Love Hard, Die Young (1955)
TTITLE16=Webb Pierce - In The Jailhouse Now (1955)
TTITLE17=Hank Snow - Let Me Go, Lover (1955)
TTITLE18=Carl Smith - Loose Talk (1955)
TTITLE19=Webb Pierce - More And More (1954)
EXTD=
EXTT0=
EXTT1=
EXTT2=
EXTT3=
EXTT4=
EXTT5=
EXTT6=
EXTT7=
EXTT8=
EXTT9=
EXTT10=
EXTT11=
EXTT12=
EXTT13=
EXTT14=
EXTT15=
EXTT16=
EXTT17=
EXTT18=
EXTT19=
PLAYORDER=
